<svg width="630" height="800" viewBox="0 0 630 800" fill="none" xmlns="http://www.w3.org/2000/svg">
<path d="M372.237 331.452C346.334 357.729 320.825 363.255 299.441 359.404C278.099 355.56 260.952 342.392 251.681 331.42L252.562 330.68L253.442 331.701C262.769 342.306 279.287 354.609 299.646 358.276C320.619 362.053 345.754 356.681 371.416 330.648L372.237 331.452Z" fill="black" stroke="black" stroke-width="52"/>
<path d="M464.598 329.449C445.38 357.537 426.454 363.444 410.588 359.328C394.754 355.219 382.032 341.143 375.153 329.414L375.807 328.623L376.46 329.714C383.38 341.051 395.635 354.202 410.74 358.122C426.301 362.159 444.949 356.417 463.989 328.589L464.598 329.449Z" fill="black" stroke="black" stroke-width="52"/>
<path d="M315 26C473.712 26 604 159.793 604 326.88C604 354.218 595.346 387.696 579.438 425.463C563.656 462.927 541.455 502.947 516.053 542.892C466.834 620.287 406.796 695.552 361.687 748.695L357.368 753.769V753.77C334.529 780.533 296.255 780.742 273.175 754.396L272.632 753.77C227.09 700.407 164.754 622.784 113.947 542.892C88.5448 502.947 66.3438 462.927 50.5625 425.463C34.6537 387.696 26 354.218 26 326.88C26 159.793 156.289 26 315 26ZM315 160.788C225.181 160.788 154 236.066 154 326.88C154 417.696 225.181 492.972 315 492.972C404.819 492.972 476 417.696 476 326.88C476 236.066 404.819 160.788 315 160.788Z" stroke="#09090B" stroke-width="52" stroke-linecap="round" stroke-linejoin="round"/>
<path d="M248.764 329.449C229.546 357.537 210.62 363.444 194.755 359.328C178.92 355.219 166.198 341.143 159.32 329.414L159.974 328.623L160.627 329.714C167.546 341.051 179.802 354.202 194.906 358.122C210.467 362.159 229.116 356.417 248.155 328.589L248.764 329.449Z" fill="black" stroke="black" stroke-width="52"/>
</svg>
